# Blender 5.0.1
# www.blender.org
mtllib Sword.mtl
o Cube
v 0.050079 2.000000 -0.141774
v 0.141774 -0.609214 -0.141774
v 0.050079 2.000000 0.141774
v 0.141774 -0.609214 0.141774
v -0.050079 2.000000 -0.141774
v -0.141774 -0.609214 -0.141774
v -0.050079 2.000000 0.141774
v -0.141774 -0.609214 0.141774
v 0.141774 0.300301 -0.141774
v 0.141774 0.066667 -0.141774
v -0.141774 0.066667 0.141774
v -0.141774 0.300301 0.141774
v 0.141774 0.300301 0.141774
v 0.141774 0.066667 0.141774
v -0.141774 0.300301 -0.141774
v -0.141774 0.066667 -0.141774
v -0.141774 0.066667 0.500000
v -0.141774 0.300301 0.500000
v 0.141774 0.300301 0.500000
v 0.141774 0.066667 0.500000
v 0.141774 0.300301 -0.500000
v 0.141774 0.066667 -0.500000
v -0.141774 0.300301 -0.500000
v -0.141774 0.066667 -0.500000
vn -0.0000 1.0000 -0.0000
vn -0.0000 -0.0000 1.0000
vn -0.9985 0.0539 -0.0000
vn -0.0000 -1.0000 -0.0000
vn 0.9985 0.0539 -0.0000
vn -0.0000 -0.0000 -1.0000
vn -1.0000 -0.0000 -0.0000
vn 1.0000 -0.0000 -0.0000
vt 0.625000 0.500000
vt 0.875000 0.500000
vt 0.875000 0.750000
vt 0.625000 0.750000
vt 0.478474 0.750000
vt 0.625000 1.000000
vt 0.478474 1.000000
vt 0.478474 0.000000
vt 0.625000 0.000000
vt 0.625000 0.250000
vt 0.478474 0.250000
vt 0.125000 0.500000
vt 0.375000 0.500000
vt 0.375000 0.750000
vt 0.125000 0.750000
vt 0.478474 0.500000
vt 0.375000 0.250000
vt 0.458333 0.250000
vt 0.458333 0.500000
vt 0.458333 0.750000
vt 0.375000 0.000000
vt 0.458333 0.000000
vt 0.458333 1.000000
vt 0.375000 1.000000
s 0
usemtl Material
f 1/1/1 5/2/1 7/3/1 3/4/1
f 13/5/2 3/4/2 7/6/2 12/7/2
f 12/8/3 7/9/3 5/10/3 15/11/3
f 6/12/4 2/13/4 4/14/4 8/15/4
f 9/16/5 1/1/5 3/4/5 13/5/5
f 15/11/6 5/10/6 1/1/6 9/16/6
f 6/17/6 16/18/6 10/19/6 2/13/6
f 16/18/7 15/11/7 23/11/7 24/18/7
f 2/13/8 10/19/8 14/20/8 4/14/8
f 10/19/8 9/16/8 13/5/8 14/20/8
f 8/21/7 11/22/7 16/18/7 6/17/7
f 11/22/7 12/8/7 15/11/7 16/18/7
f 4/14/2 14/20/2 11/23/2 8/24/2
f 14/20/8 13/5/8 19/5/8 20/20/8
f 20/20/2 19/5/2 18/7/2 17/23/2
f 12/8/7 11/22/7 17/22/7 18/8/7
f 11/23/4 14/20/4 20/20/4 17/23/4
f 13/5/1 12/7/1 18/7/1 19/5/1
f 24/18/6 23/11/6 21/16/6 22/19/6
f 9/16/8 10/19/8 22/19/8 21/16/8
f 10/19/4 16/18/4 24/18/4 22/19/4
f 15/11/1 9/16/1 21/16/1 23/11/1
